<?xml version="1.0" encoding="iso-8859-1"?>
<!-- Uploaded to: SVG Repo, www.svgrepo.com, Generator: SVG Repo Mixer Tools -->
<svg height="800px" width="800px" version="1.1" id="Capa_1" xmlns="http://www.w3.org/2000/svg" xmlns:xlink="http://www.w3.org/1999/xlink" 
	 viewBox="0 0 208.35 208.35" xml:space="preserve">
<g>
	<path style="fill:#010002;" d="M145.038,39.324c-38.083-26.602-42.986-35.488-43.505-36.676L101.59,0l-2.745,0.326
		c-8.224,0.963-11.116,6.61-11.531,9.856v143.891c-6.238-1.546-13.281-1.478-20.042,0.2c-8.897,2.205-16.617,6.972-21.734,13.428
		c-5.264,6.632-7.183,14.187-5.429,21.23c1.743,11.066,14.741,19.419,30.22,19.419c3.443,0,6.864-0.419,10.175-1.26
		c14.938-3.718,26.215-14.773,27.6-27.01h0.183l0.379-139.611c7.659,0.762,31.809,6.263,55.784,43.852l4.398,6.907l0.025-8.192
		C168.887,82.006,168.726,57.555,145.038,39.324z M70.329,203.536c-12.912,0-24.121-6.818-25.514-15.568
		c-1.417-5.705,0.165-11.839,4.484-17.279c4.463-5.626,11.263-9.795,19.136-11.749c3.142-0.784,6.327-1.177,9.448-1.177
		c3.901,0,7.612,0.605,11.037,1.807l3.196,1.124L92.099,10.511c0.011-0.047,0.619-3.797,5.554-5.086
		c2.398,4.259,11.438,14.652,44.542,37.771c12.272,9.448,17.726,20.868,20.149,29.54c-26.645-36.121-52.742-37.188-55.712-37.188
		l0,0l-2.756,0.125l-0.379,140.076l-0.043,1.908c-0.068,10.89-10.214,21.305-24.118,24.758
		C76.417,203.161,73.385,203.536,70.329,203.536z"/>
</g>
</svg>